<svg xmlns="http://www.w3.org/2000/svg" version="1.1" xmlns:xlink="http://www.w3.org/1999/xlink" xmlns:svgjs="http://svgjs.dev/svgjs" width="100%" height="100%" viewBox="0 0 1000 600"><rect width="1000" height="600" x="0" y="0" fill=" #fff"/><g><rect width="333.3333333333333" height="333.3333333333333" rx="13.333333333333334" ry="13.333333333333334" y="164.35793526832884" fill="#001133" transform="matrix(0.8794410682517981,0,0,0.8794410682517981,0,8.883350066432328)" x="142.13572692871094"/><path d="M271.65794300794033 406.0246036721506L271.65794300794033 406.0246036721506Q257.79848981382816 406.0246036721506 245.5564375960913 398.9972752920374L245.5564375960913 398.9972752920374Q232.31048132405255 390.7429530677775 227.8765717508859 378.50090085004064L227.8765717508859 378.50090085004064Q226.28705699824127 374.0948775006046 225.47835651005363 370.3860097444337Q224.669656021866 366.64925576453226 224.669656021866 364.05583695758565L224.669656021866 364.05583695758565Q224.669656021866 357.6141192758153 229.2987691611469 357.6141192758153L229.2987691611469 357.6141192758153Q230.6930803476773 357.6141192758153 230.88828391379155 359.0363166860763L230.88828391379155 359.0363166860763Q231.89218796809342 362.8567293371696 232.70088845628106 365.4501481441161Q233.5095889444687 368.07145317479325 234.12308586654206 369.66096792743787L234.12308586654206 369.66096792743787Q235.12698992084395 372.4774765242293 236.7165046734886 374.90357798879216Q238.33390564986388 377.3017932296245 240.1465101923534 379.5048049043425L240.1465101923534 379.5048049043425Q249.57205381329885 390.15734236943473 265.43931511601477 390.15734236943473L265.43931511601477 390.15734236943473Q268.25582371280615 390.15734236943473 272.04835014016885 388.9582347490186L272.04835014016885 388.9582347490186Q276.2870561472212 387.73124090487187 276.872666845564 387.73124090487187L276.872666845564 387.73124090487187Q277.4861637676374 387.9543306947167 277.4861637676374 388.34473782694516L277.4861637676374 388.34473782694516Q277.4861637676374 391.9699469119242 262.23239938699487 391.9699469119242L262.23239938699487 391.9699469119242Q240.5369173245819 391.9699469119242 233.70479251058296 377.1065896635102L233.70479251058296 377.1065896635102Q245.75164116220557 404.01679556354685 271.4627394418261 404.01679556354685L271.4627394418261 404.01679556354685Q299.15375960631974 404.01679556354685 315.02102090903566 379.7000084704568L315.02102090903566 379.7000084704568Q320.04054118054506 372.08706939200084 325.06006145205447 358.9247717911539Q330.07958172356393 345.7903604140376 335.29430556118757 327.1065905145302L335.29430556118757 327.1065905145302Q333.28649745258383 326.911386948416 330.3863301846006 326.6046384873793Q327.48616291661733 326.2978900263426 324.0561573977526 325.71227932799985L324.0561573977526 325.71227932799985Q322.4666426451079 347.9933720887556 304.17327987782915 359.62192738441905L304.17327987782915 359.62192738441905Q305.4002737219759 357.83720906566015 305.4002737219759 355.215904034983L305.4002737219759 355.215904034983Q305.4002737219759 353.5985030586077 302.974172257413 347.5750787327965L302.974172257413 347.5750787327965Q302.974172257413 346.18076754626605 303.97807631171486 343.3642589494746Q304.9819803660168 340.5477503526833 306.18108798643294 340.1573432204547L306.18108798643294 340.1573432204547L306.59938134239206 340.5477503526833Q310.1967042036405 348.3837792209841 310.1967042036405 350.19638376347353L310.1967042036405 350.19638376347353Q310.1967042036405 351.00508425166123 310.0015006375262 351.00508425166123L310.0015006375262 351.00508425166123L307.1849920407348 355.8294009570564Q321.04444523484693 343.3642589494746 321.46273859080605 325.29398597204073L321.46273859080605 325.29398597204073Q306.7945849085063 322.8957707312084 298.1498555520178 322.8957707312084L298.1498555520178 322.8957707312084Q282.8960911713753 322.8957707312084 272.85705062835643 329.5048057553625L272.85705062835643 329.5048057553625L272.466643496128 328.91919505701975L278.88047495416777 323.8996747855103Q287.1069109546971 317.06754997151137 304.17327987782915 317.06754997151137L304.17327987782915 317.06754997151137Q307.60328539669393 317.06754997151137 311.8141051800157 317.45795710373994Q316.0249249633375 317.87625045969907 321.04444523484693 318.68495094788665L321.04444523484693 318.68495094788665Q320.2357447466593 313.0519337543039 318.33948153297797 308.53436550994536Q316.44321831929665 304.0167972655869 313.6267097225052 300.1963846144936L313.6267097225052 300.1963846144936Q307.1849920407348 290.96604455966235 298.1498555520178 290.96604455966235L298.1498555520178 290.96604455966235Q296.9507479316017 290.96604455966235 295.05448471792033 291.57954148173576Q293.1303352805084 292.1651521800785 292.12643122620653 292.1651521800785L292.12643122620653 292.1651521800785Q291.5408205278638 292.1651521800785 291.5408205278638 291.77474504785005L291.5408205278638 291.77474504785005Q291.5408205278638 288.56782931883015 298.9585560402055 288.56782931883015L298.9585560402055 288.56782931883015Q309.80629707141196 288.56782931883015 317.0288290176394 298.60686986184896L317.0288290176394 298.60686986184896Q322.85704977733644 307.2237129946068 324.0561573977526 318.88015451400094L324.0561573977526 318.88015451400094Q326.2591690724706 319.0753580801151 329.3824261302987 319.5773101072661Q332.5056831881268 320.0792621344171 336.71650297144856 320.8879626226047L336.71650297144856 320.8879626226047Q340.11862226658275 308.0324134827945 343.1303344294884 298.885732099155Q346.1420465923941 289.7669369392463 348.76335162307123 284.13391974566343L348.76335162307123 284.13391974566343Q342.12643037518654 283.743512613435 334.2067428356939 282.321315203174Q326.2591690724706 280.92700401664354 317.0288290176394 278.9191959080398L317.0288290176394 278.9191959080398L285.51739620205245 271.6966639618123Q276.0639663573764 269.88405941932285 268.33948238399796 268.8801553650209Q260.6149984106196 267.876251310719 254.39637051869403 267.876251310719L254.39637051869403 267.876251310719Q238.91951634820663 267.876251310719 231.11137370363642 274.0948792026446L231.11137370363642 274.0948792026446Q224.86485958798025 279.114399474154 224.86485958798025 285.3330273660796L224.86485958798025 285.3330273660796Q224.86485958798025 296.1807683972861 240.1465101923534 296.1807683972861L240.1465101923534 296.1807683972861Q240.73212089069614 296.1807683972861 240.73212089069614 296.3759719634003L240.73212089069614 296.3759719634003Q240.73212089069614 297.18467245158797 235.71260061918673 297.37987601770226L235.71260061918673 297.37987601770226Q235.3221934869582 297.37987601770226 234.9039001309991 297.68662447873885Q234.51349299877057 297.99337293977555 233.89999607669722 297.99337293977555L233.89999607669722 297.99337293977555Q232.89609202239532 297.99337293977555 231.11137370363642 297.37987601770226L231.11137370363642 297.37987601770226Q223.2753448353356 294.78645721075566 223.2753448353356 286.5600212102263L223.2753448353356 286.5600212102263Q223.2753448353356 284.3291233117777 223.9725004286008 281.9309080709454Q224.669656021866 279.53269283011315 226.28705699824127 277.3017949316645L226.28705699824127 277.3017949316645Q237.7204087277905 260.2354260085325 262.62280651922333 260.2354260085325L262.62280651922333 260.2354260085325Q267.6423267907328 260.2354260085325 273.3590026555074 260.96046782552827Q279.07567852028205 261.6576234187935 285.7125997681667 262.85673103920965L285.7125997681667 262.85673103920965Q296.7555443654875 265.673239636001 313.3199612614685 269.27056249724944Q329.88437815744965 272.89577158222846 352.1654709182054 277.52488472150935L352.1654709182054 277.52488472150935L354.78677594888256 273.09097514834275Q358.18889524401663 268.2666584429476 364.21231956982797 264.25104222574L364.21231956982797 264.25104222574Q370.84924081771265 260.45851579837733 376.25916822145064 260.45851579837733L376.25916822145064 260.45851579837733Q379.075676818242 260.45851579837733 382.78454457441285 262.24323411713624Q386.49341233058374 264.05583865962575 386.49341233058374 266.87234725641713L386.49341233058374 266.87234725641713Q386.49341233058374 269.07535893113516 384.70869401182483 269.07535893113516L384.70869401182483 269.07535893113516Q384.2904006558657 269.07535893113516 381.27868849296004 266.06364676822955L381.27868849296004 266.06364676822955Q378.6852696860135 262.85673103920965 375.2552641671487 262.85673103920965L375.2552641671487 262.85673103920965Q368.0327322209213 262.85673103920965 362.8180083832976 274.51317255860374L362.8180083832976 274.51317255860374L361.00540384080807 278.3056989859664Q363.6267088714852 278.5287887758112 366.13646900723995 278.5287887758112Q368.6462291429947 278.5287887758112 370.6540372515984 278.5287887758112L370.6540372515984 278.5287887758112Q384.70869401182483 278.5287887758112 389.1147173612609 273.89967563653033L389.1147173612609 273.89967563653033Q392.7399264462399 269.68885585320857 392.7399264462399 264.47413201558487L392.7399264462399 264.47413201558487Q392.7399264462399 261.6576234187935 391.1225254698646 259.34306684915305Q389.50512449348935 257.0285102795126 389.50512449348935 257.0285102795126L389.50512449348935 257.0285102795126Q389.50512449348935 256.0246062252107 390.7321183376361 256.0246062252107L390.7321183376361 256.0246062252107Q394.3294411988845 256.0246062252107 394.3294411988845 264.47413201558487L394.3294411988845 264.47413201558487Q394.3294411988845 284.9426202338511 360.39190691873466 284.74741666773684L360.39190691873466 284.74741666773684L358.80239216609004 284.74741666773684Q357.99369167790246 286.5600212102263 355.0935244099192 295.8740199362494Q352.1654709182054 305.21590488600305 346.95074708058166 321.89186667690655L346.95074708058166 321.89186667690655L351.1615668639035 321.89186667690655Q356.3762907015272 321.89186667690655 360.69865537977137 320.8879626226047Q365.02102005801567 319.8840585683028 368.6462291429947 318.07145402581324L368.6462291429947 318.07145402581324Q369.42704340745166 318.07145402581324 369.42704340745166 318.4618611580418L369.42704340745166 318.4618611580418Q369.42704340745166 321.69666311079226 361.3958109730366 325.489189538155L361.3958109730366 325.489189538155Q358.3840988101309 326.7161833823017 355.0935244099192 327.4133389755669Q351.77506378597684 328.11049456883217 348.1498547009978 328.11049456883217L348.1498547009978 328.11049456883217Q347.34115421281024 328.11049456883217 346.5603399483532 328.11049456883217Q345.75163946016556 328.11049456883217 344.9429389719779 327.9152910027179L344.9429389719779 327.9152910027179Q339.3099217783951 346.18076754626605 333.00763521527773 359.5382687132273Q326.67746242842975 372.8957698801884 320.04054118054506 381.70781657906053L320.04054118054506 381.70781657906053Q300.77116058269496 406.0246036721506 271.65794300794033 406.0246036721506Z " fill=" #FFA500" transform="matrix(0.8794410682517981,0,0,0.8794410682517981,0,8.883350066432328)"/><path d="M590.2601544375547 353.552713540223L590.2601544375547 353.552713540223Q581.2489125845366 353.552713540223 573.289284468893 348.9836331640449L573.289284468893 348.9836331640449Q564.6769305852239 343.61677684916896 561.7940584431115 335.6571487335253L561.7940584431115 335.6571487335253Q560.7605759770712 332.792407862747 560.234769108384 330.3809487753196Q559.7089622396968 327.9513584165582 559.7089622396968 326.2651501824924L559.7089622396968 326.2651501824924Q559.7089622396968 322.0768265043292 562.7187532811475 322.0768265043292L562.7187532811475 322.0768265043292Q563.6253168478495 322.0768265043292 563.7522357471878 323.00152134236515L563.7522357471878 323.00152134236515Q564.4049615152132 325.48550551512875 564.9307683839004 327.17171374919445Q565.4565752525876 328.8760532545942 565.8554632219365 329.90953572063455L565.8554632219365 329.90953572063455Q566.5081889899619 331.7407941253726 567.5416714560022 333.3182147314341Q568.5932851933766 334.8775040661615 569.7718178300892 336.3098745015507L569.7718178300892 336.3098745015507Q575.9001875409948 343.23602015115415 586.2168809300637 343.23602015115415L586.2168809300637 343.23602015115415Q588.0481393348018 343.23602015115415 590.5139922362312 342.4563754837904L590.5139922362312 342.4563754837904Q593.2699454790054 341.6585995450926 593.6507021770201 341.6585995450926L593.6507021770201 341.6585995450926Q594.049590146369 341.80364971576495 594.049590146369 342.05748751444145L594.049590146369 342.05748751444145Q594.049590146369 344.41455278786674 584.1317847266491 344.41455278786674L584.1317847266491 344.41455278786674Q570.0256556287658 344.41455278786674 565.5834941519258 334.7505851668233L565.5834941519258 334.7505851668233Q573.4162033682312 352.2472620041721 590.1332355382164 352.2472620041721L590.1332355382164 352.2472620041721Q608.1375879729183 352.2472620041721 618.4542813619872 336.43679340088903L618.4542813619872 336.43679340088903Q621.7179102021145 331.486956326696 624.9815390422417 322.92899625702904Q628.245167882369 314.38916745869614 631.6357156218345 302.2412156648892L631.6357156218345 302.2412156648892Q630.3302640857836 302.1142967655509 628.4446118670434 301.91485278087646Q626.5589596483032 301.7154087962019 624.3288132742163 301.3346520981871L624.3288132742163 301.3346520981871Q623.295330808176 315.82153789408534 611.4012168130455 323.3822780403801L611.4012168130455 323.3822780403801Q612.1989927517434 322.2218766750015 612.1989927517434 320.51753716960167L612.1989927517434 320.51753716960167Q612.1989927517434 319.4659234322274 610.6215721456819 315.5495688240747L610.6215721456819 315.5495688240747Q610.6215721456819 314.64300525737264 611.2742979137073 312.8117468526346Q611.9270236817327 310.9804884478965 612.7066683490964 310.72665064922L612.7066683490964 310.72665064922L612.9786374191071 310.9804884478965Q615.3175714211982 316.07537569276184 615.3175714211982 317.2539083294744L615.3175714211982 317.2539083294744Q615.3175714211982 317.7797151981617 615.19065252186 317.7797151981617L615.19065252186 317.7797151981617L613.3593941171218 320.9164251389506Q622.3706359701399 312.8117468526346 622.6426050401506 301.0626830281765L622.6426050401506 301.0626830281765Q613.1055563184453 299.5033936934491 607.4848622048928 299.5033936934491L607.4848622048928 299.5033936934491Q597.5670567851729 299.5033936934491 591.0397991049183 303.8005049996166L591.0397991049183 303.8005049996166L590.7859613062418 303.41974830160177L594.9561537130711 300.15611946147453Q600.3048787566129 295.7139579846347 611.4012168130455 295.7139579846347L611.4012168130455 295.7139579846347Q613.6313631871325 295.7139579846347 616.3691851585726 295.9677957833112Q619.1070071300127 296.23976485332184 622.3706359701399 296.765571722009L622.3706359701399 296.765571722009Q621.8448291014528 293.1030549125329 620.611902650738 290.1657889564184Q619.3789762000233 287.2285230003039 617.5477177952853 284.7445388275403L617.5477177952853 284.7445388275403Q613.3593941171218 278.743088015973 607.4848622048928 278.743088015973L607.4848622048928 278.743088015973Q606.7052175375292 278.743088015973 605.4722910868144 279.1419759853219Q604.2212333647656 279.5227326833367 603.5685075967401 279.5227326833367L603.5685075967401 279.5227326833367Q603.1877508987253 279.5227326833367 603.1877508987253 279.2688948846602L603.1877508987253 279.2688948846602Q603.1877508987253 277.18379868124555 608.0106690735801 277.18379868124555L608.0106690735801 277.18379868124555Q615.0637336225217 277.18379868124555 619.7597328980381 283.7110563615L619.7597328980381 283.7110563615Q623.5491686068525 289.3136192037184 624.3288132742163 296.8924906213473L624.3288132742163 296.8924906213473Q625.7611837096053 297.0194095206856 627.7918860990179 297.3457724046983Q629.8225884884305 297.67213528871105 632.5604104598705 298.1979421573982L632.5604104598705 298.1979421573982Q634.7724255626234 289.8394260724057 636.7306028666998 283.8923690748404Q638.6887801707761 277.9634433486093 640.393119676176 274.3009265391331L640.393119676176 274.3009265391331Q636.0778770986743 274.0470887404566 630.928596039807 273.1223939024205Q625.7611837096053 272.2158303357185 619.7597328980381 270.9103787996676L619.7597328980381 270.9103787996676L599.2713962905726 266.21437952415124Q593.124895308333 265.03584688743854 588.1025331488038 264.3831211194131Q583.0801709892747 263.73039535138764 579.0368974817837 263.73039535138764L579.0368974817837 263.73039535138764Q568.9740418913914 263.73039535138764 563.8972859178601 267.77366885887864L563.8972859178601 267.77366885887864Q559.8358811390351 271.0372976990059 559.8358811390351 275.08057120649687L559.8358811390351 275.08057120649687Q559.8358811390351 282.1336357554385 569.7718178300892 282.1336357554385L569.7718178300892 282.1336357554385Q570.152574528104 282.1336357554385 570.152574528104 282.2605546547768L570.152574528104 282.2605546547768Q570.152574528104 282.78636152346394 566.8889456879767 282.91328042280225L566.8889456879767 282.91328042280225Q566.6351078893002 282.91328042280225 566.3631388192896 283.11272440747666Q566.1093010206131 283.31216839215114 565.7104130512641 283.31216839215114L565.7104130512641 283.31216839215114Q565.0576872832387 283.31216839215114 563.8972859178601 282.91328042280225L563.8972859178601 282.91328042280225Q558.8023986729949 281.22707218873654 558.8023986729949 275.87834714519465L558.8023986729949 275.87834714519465Q558.8023986729949 274.4278454384714 559.2556804563458 272.86855610374397Q559.7089622396968 271.3092667690165 560.7605759770712 269.8587650622933L560.7605759770712 269.8587650622933Q568.1943972240276 258.7624270058607 584.3856225253256 258.7624270058607L584.3856225253256 258.7624270058607Q587.6492513654529 258.7624270058607 591.366161988931 259.23384006054573Q595.0830726124093 259.6871218438967 599.3983151899109 260.4667665112604L599.3983151899109 260.4667665112604Q606.5782986381909 262.29802491599855 617.3482738106107 264.6369589180897Q628.1182489830306 266.9940241915149 642.6051347789288 270.0038152329656L642.6051347789288 270.0038152329656L644.3094742843286 267.1209430908532Q646.5214893870815 263.98423315006426 650.4378439952342 261.37333007796246L650.4378439952342 261.37333007796246Q654.7530865727358 258.907477176533 658.2705532115395 258.907477176533L658.2705532115395 258.907477176533Q660.1018116162777 258.907477176533 662.513270703705 260.06787854191157Q664.9247297911323 261.24641117862416 664.9247297911323 263.0776695833622L664.9247297911323 263.0776695833622Q664.9247297911323 264.5100400187514 663.7643284257538 264.5100400187514L663.7643284257538 264.5100400187514Q663.4923593557431 264.5100400187514 661.5341820516668 262.55186271467505L661.5341820516668 262.55186271467505Q659.8479738176011 260.4667665112604 657.6178274435141 260.4667665112604L657.6178274435141 260.4667665112604Q652.9218281679978 260.4667665112604 649.5312804285322 268.0456379288893L649.5312804285322 268.0456379288893L648.3527477918195 270.51149083031873Q650.0570872972194 270.65654100099107 651.688901717283 270.65654100099107Q653.3207161373466 270.65654100099107 654.6261676733975 270.65654100099107L654.6261676733975 270.65654100099107Q663.7643284257538 270.65654100099107 666.6290692965322 267.64674995954033L666.6290692965322 267.64674995954033Q668.9861345699574 264.90892798810034 668.9861345699574 261.5183802486348L668.9861345699574 261.5183802486348Q668.9861345699574 259.6871218438967 667.9345208325831 258.18222632317134Q666.8829070952087 256.677330802446 666.8829070952087 256.677330802446L666.8829070952087 256.677330802446Q666.8829070952087 256.0246050344206 667.6806830339065 256.0246050344206L667.6806830339065 256.0246050344206Q670.0196170359976 256.0246050344206 670.0196170359976 261.5183802486348L670.0196170359976 261.5183802486348Q670.0196170359976 274.8267334078203 647.9538598224707 274.69981450848206L647.9538598224707 274.69981450848206L646.9203773564304 274.69981450848206Q646.3945704877432 275.87834714519465 644.5089182690031 281.9341917707641Q642.6051347789288 288.0081676676675 639.2145870394633 298.85066792542364L639.2145870394633 298.85066792542364L641.9524090109034 298.85066792542364Q645.3429567503689 298.85066792542364 648.1533038071451 298.1979421573982Q650.9636508639213 297.54521638937274 653.3207161373466 296.36668375266015L653.3207161373466 296.36668375266015Q653.8283917346997 296.36668375266015 653.8283917346997 296.62052155133665L653.8283917346997 296.62052155133665Q653.8283917346997 298.72374902608533 648.6065855904961 301.1896019275148L648.6065855904961 301.1896019275148Q646.6484082864198 301.98737786621257 644.5089182690031 302.4406596495636Q642.3512969802523 302.89394143291463 639.994231706827 302.89394143291463L639.994231706827 302.89394143291463Q639.4684248381399 302.89394143291463 638.9607492407868 302.89394143291463Q638.4349423720996 302.89394143291463 637.9091355034124 302.7670225335763L637.9091355034124 302.7670225335763Q634.2466186939363 314.64300525737264 630.1489513724432 323.3278842263779Q626.0331527796161 332.01276319538323 621.7179102021145 337.7422449369399L621.7179102021145 337.7422449369399Q609.1892017102927 353.552713540223 590.2601544375547 353.552713540223ZM648.098909993143 347.40621255798334L648.098909993143 347.40621255798334Q642.7320536782671 347.40621255798334 642.7320536782671 342.18440641377975L642.7320536782671 342.18440641377975Q642.7320536782671 337.2345693395868 649.912037126547 328.35024638590704L649.912037126547 328.35024638590704Q656.4392948068015 320.11864920025283 661.2803442529903 317.0000705307979Q666.1032624278449 313.8633605900089 670.2915861060083 313.8633605900089L670.2915861060083 313.8633605900089Q675.2414231802012 313.8633605900089 675.2414231802012 316.7281014607873L675.2414231802012 316.7281014607873Q675.2414231802012 317.38082722881273 673.9359716441503 318.63188495086155Q672.6305201080994 319.8648114015762 672.5036012087612 320.11864920025283L672.5036012087612 320.11864920025283Q670.0196170359976 324.18005397907785 670.0196170359976 336.58184357156136L670.0196170359976 336.58184357156136Q670.0196170359976 343.7618270198413 673.1563269767867 343.7618270198413L673.1563269767867 343.7618270198413Q676.021067847565 343.7618270198413 679.8105035563793 340.3531480090417Q683.5999392651938 336.96260026957617 686.8635681053211 332.792407862747L686.8635681053211 332.792407862747Q687.2624560746699 332.39351989339804 687.5162938733465 332.39351989339804L687.5162938733465 332.39351989339804Q688.0421007420337 332.39351989339804 688.0421007420337 333.0462456614235L688.0421007420337 333.0462456614235Q688.0421007420337 333.3182147314341 687.8426567573592 333.9709404994596Q687.6432127726848 334.623666267485 687.3893749740082 335.0044229654998L687.3893749740082 335.0044229654998Q682.0406499304663 342.18440641377975 678.1786891363157 344.66839058654324Q674.3348596134992 347.15237475930684 670.6723428040231 347.15237475930684L670.6723428040231 347.15237475930684Q664.797810891794 347.15237475930684 664.9247297911323 334.623666267485L664.9247297911323 334.623666267485Q662.4588768897029 339.0476964729908 657.7447463428524 342.9640510811435L657.7447463428524 342.9640510811435Q652.2691023999723 347.40621255798334 648.098909993143 347.40621255798334ZM651.6163766319469 343.8887459191796L651.6163766319469 343.8887459191796Q653.8283917346997 343.8887459191796 656.3123759074632 342.05748751444145L656.3123759074632 342.05748751444145Q664.0181662244303 335.9291178035359 666.3752314978556 319.08516673421246L666.3752314978556 319.08516673421246Q665.9763435285066 319.08516673421246 665.8494246291684 318.95824783487427L665.8494246291684 318.95824783487427Q663.2385215570666 318.95824783487427 658.923278979565 322.0768265043292L658.923278979565 322.0768265043292Q655.278893441423 324.56081067709266 653.048747067336 327.4436828192051L653.048747067336 327.4436828192051Q647.8269409231324 334.2247782981361 647.8269409231324 339.19274664366316L647.8269409231324 339.19274664366316Q647.8269409231324 343.8887459191796 651.6163766319469 343.8887459191796ZM698.8664697284556 306.9372149404055L698.8664697284556 306.9372149404055Q697.3071803937282 306.9372149404055 696.0017288576773 305.5048445050164Q694.6962773216264 304.0724740696272 694.6962773216264 302.4950534635657L694.6962773216264 302.4950534635657Q694.6962773216264 298.85066792542364 698.7395508291174 298.85066792542364L698.7395508291174 298.85066792542364Q702.65590543727 298.85066792542364 702.65590543727 302.640103634238L702.65590543727 302.640103634238Q702.65590543727 306.9372149404055 698.8664697284556 306.9372149404055ZM697.1802614943899 347.678181627994L697.1802614943899 347.678181627994Q692.7381000175501 347.678181627994 689.8008340614356 344.59586550120713Q686.8635681053211 341.5316806457543 686.8635681053211 335.6571487335253L686.8635681053211 335.6571487335253Q686.8635681053211 328.47716528524535 690.7799227134738 321.0433440382888L690.7799227134738 321.0433440382888Q692.2122931488628 318.3055220668488 695.7478910590007 318.3055220668488L695.7478910590007 318.3055220668488Q697.8329872624154 318.3055220668488 697.8329872624154 319.6109736028997L697.8329872624154 319.6109736028997Q697.8329872624154 319.9917303009145 697.4340992930665 320.7713749682783L697.4340992930665 320.7713749682783Q692.8650189168884 329.52877902261963 692.8650189168884 335.7840676328636L692.8650189168884 335.7840676328636Q692.8650189168884 340.3531480090417 694.4968333369519 342.4563754837904Q696.1286477570155 344.54147168720505 699.011519899128 344.54147168720505L699.011519899128 344.54147168720505Q703.5806002753061 344.54147168720505 708.1496806514842 341.0783988624033Q712.7187610276624 337.6153260376016 717.01587233383 332.6654889634087L717.01587233383 332.6654889634087Q717.4147603031788 332.01276319538323 718.1944049705426 332.01276319538323L718.1944049705426 332.01276319538323Q718.7202118392297 332.01276319538323 718.7202118392297 332.52043879273634L718.7202118392297 332.52043879273634Q718.7202118392297 332.9193267620852 718.2669300558787 333.64457761544685Q717.7955170011937 334.3516971974744 717.4147603031788 335.0044229654998L717.4147603031788 335.0044229654998Q715.7104207977791 337.2345693395868 713.3714867956878 339.57350334167796Q711.0144215222626 341.93056861510314 707.8777115814737 344.0156648185178L707.8777115814737 344.0156648185178Q705.3937274087101 345.72000432391764 702.6015116232679 346.6990929759558Q699.7911645664917 347.678181627994 697.1802614943899 347.678181627994ZM737.776178011306 347.27929365864503L737.776178011306 347.27929365864503Q733.0801787357896 347.27929365864503 733.0801787357896 341.404761746416L733.0801787357896 341.404761746416Q733.0801787357896 338.26805180562707 735.4191127378808 333.5720525301106L735.4191127378808 333.5720525301106Q737.6492591119677 328.35024638590704 737.6492591119677 325.99318111248186L737.6492591119677 325.99318111248186Q737.6492591119677 324.30697287841605 736.3982013899189 323.3822780403801Q735.1652749392042 322.475714473678 733.3340165344662 321.69606980631426L733.3340165344662 321.69606980631426Q732.0285649984153 321.0433440382888 730.5961945630261 320.11864920025283Q729.1638241276369 319.21208563355077 728.2391292896008 318.3055220668488L728.2391292896008 318.3055220668488Q727.3325657228988 320.26369937092517 724.1958557821099 325.0866175457798Q721.0591458413209 329.90953572063455 717.4147603031788 335.0044229654998L717.4147603031788 335.0044229654998Q716.8889534344917 335.6571487335253 716.3631465658045 335.6571487335253L716.3631465658045 335.6571487335253Q715.8373396971174 335.6571487335253 715.8373396971174 334.7505851668233L715.8373396971174 334.7505851668233Q715.8373396971174 333.82589032878724 716.8889534344917 332.792407862747L716.8889534344917 332.792407862747Q717.940567171866 331.486956326696 719.8987444759423 328.54969037058146Q721.8569217800186 325.61242441446694 723.815099084095 322.1493515896653Q725.7732763881713 318.68627876486363 726.8067588542117 316.07537569276184L726.8067588542117 316.07537569276184Q726.1540330861862 313.8633605900089 725.7732763881713 312.28593998394746Q725.3743884188225 310.72665064922 725.3743884188225 309.1673613144925L725.3743884188225 309.1673613144925Q725.3743884188225 306.41140807171837 726.9336777535499 304.1993929689655Q728.5110983596114 301.98737786621257 730.9950825323749 301.98737786621257L730.9950825323749 301.98737786621257Q734.5125491711788 301.98737786621257 734.5125491711788 306.15757027304187L734.5125491711788 306.15757027304187Q734.5125491711788 310.72665064922 730.9950825323749 315.69461899474703L730.9950825323749 315.69461899474703Q731.502758129728 316.4742636621108 732.3005340684258 317.0000705307979Q733.0801787357896 317.50774612815104 734.7663869698554 318.1604718961765L734.7663869698554 318.1604718961765Q735.6910818078914 318.5593598655253 736.5432515605912 318.68627876486363Q737.3772900419572 318.81319766420194 738.0300158099826 318.81319766420194L738.0300158099826 318.81319766420194Q739.0816295473569 318.81319766420194 739.8068804007185 318.68627876486363Q740.5139999827461 318.5593598655253 741.0398068514332 318.5593598655253L741.0398068514332 318.5593598655253Q741.819451518797 318.5593598655253 742.9254590701735 319.4115296182252Q744.0495978928839 320.26369937092517 744.0495978928839 321.94990760499087L744.0495978928839 321.94990760499087Q744.0495978928839 322.87460244302696 743.9045477222116 323.12844024170346L743.9045477222116 323.12844024170346Q743.7776288228733 323.3822780403801 743.197428140184 325.28606153045433Q742.5990961861608 327.17171374919445 741.1667257507715 330.56226148866L741.1667257507715 330.56226148866Q738.5558226786698 337.3614882389251 738.5558226786698 340.0993102103651L738.5558226786698 340.0993102103651Q738.5558226786698 343.7618270198413 741.0398068514332 343.7618270198413L741.0398068514332 343.7618270198413Q743.7776288228733 343.7618270198413 747.6395896170238 340.49819817971405Q751.4834191398404 337.2345693395868 754.7470479799676 332.792407862747L754.7470479799676 332.792407862747Q755.1459359493165 332.39351989339804 755.3997737479931 332.39351989339804L755.3997737479931 332.39351989339804Q755.9255806166802 332.39351989339804 755.9255806166802 333.3182147314341L755.9255806166802 333.3182147314341Q755.9255806166802 334.2247782981361 755.2728548486548 335.0044229654998L755.2728548486548 335.0044229654998Q750.0510487044512 341.93056861510314 745.862725026288 344.59586550120713Q741.6925326194587 347.27929365864503 737.776178011306 347.27929365864503ZM767.8015633404766 348.1858572253471L767.8015633404766 348.1858572253471Q754.6201290806293 348.1858572253471 754.6201290806293 328.749134355256L754.6201290806293 328.749134355256Q754.6201290806293 309.6750369118456 767.1488375724512 287.3554418996421L767.1488375724512 287.3554418996421Q779.4237082655964 265.16276578677684 790.3931274226907 265.16276578677684L790.3931274226907 265.16276578677684Q794.3094820308435 265.16276578677684 795.6149335668943 270.51149083031873L795.6149335668943 270.51149083031873L795.6149335668943 272.2158303357185Q795.6149335668943 281.60782888675135 781.1099164996622 303.9455551702889L781.1099164996622 303.9455551702889Q774.9815467887565 313.59139151999835 769.5602966598785 320.7713749682783Q764.1390465310005 327.9513584165582 759.4430472554841 332.9193267620852L759.4430472554841 332.9193267620852Q761.0204678615456 344.66839058654324 770.2855475132401 344.66839058654324L770.2855475132401 344.66839058654324Q775.8881103554586 344.66839058654324 779.8044649636113 341.4772868317522Q783.720819571764 338.26805180562707 788.1629810486038 332.792407862747L788.1629810486038 332.792407862747Q788.9426257159676 332.01276319538323 789.2145947859781 332.01276319538323L789.2145947859781 332.01276319538323Q789.595351483993 332.01276319538323 789.595351483993 332.6654889634087L789.595351483993 332.6654889634087Q789.595351483993 333.5720525301106 788.6887879172909 335.0044229654998L788.6887879172909 335.0044229654998Q783.0680938037385 342.18440641377975 778.1182567295455 345.1941974552305Q773.1502883840185 348.1858572253471 767.8015633404766 348.1858572253471ZM759.5699661548224 329.65569792195794L759.5699661548224 329.65569792195794Q766.623030703764 322.7295522723546 777.9913378302073 302.2412156648892L777.9913378302073 302.2412156648892Q789.9942394533418 280.4474275213728 789.9942394533418 272.2158303357185L789.9942394533418 272.2158303357185Q789.9942394533418 268.5533135262424 787.9091432499272 268.5533135262424L787.9091432499272 268.5533135262424Q779.8044649636113 268.5533135262424 769.5059028458763 291.797603376482L769.5059028458763 291.797603376482Q764.6648533996877 303.29282940226346 762.126475412922 312.6848279532963Q759.5699661548224 322.0768265043292 759.5699661548224 329.65569792195794ZM759.9688541241712 406.02461278093546L759.9688541241712 406.02461278093546Q751.4834191398404 406.02461278093546 746.787419864324 401.7093702034338L746.787419864324 401.7093702034338Q741.5656137201204 397.285339997928 741.5656137201204 389.180661711612L741.5656137201204 389.180661711612Q741.5656137201204 363.0716309905941 811.2803519995051 345.448035253907L811.2803519995051 345.448035253907Q811.9330777675306 339.0476964729908 812.2594406515433 333.64457761544685Q812.585803535556 328.22332748656873 812.7127224348943 323.9080849090672L812.7127224348943 323.9080849090672Q811.7880275968582 326.6459068805073 810.6276262314797 329.1298910532708Q809.4490935947671 331.6138752260343 808.1436420587161 333.82589032878724L808.1436420587161 333.82589032878724Q806.312383653978 337.4884071382633 801.8702221771382 341.404761746416L801.8702221771382 341.404761746416Q796.6484160329346 345.5749541532453 793.3847871928074 345.5749541532453L793.3847871928074 345.5749541532453Q790.9008030200439 345.5749541532453 789.0876758866398 342.8371321818052L789.0876758866398 342.8371321818052Q787.6371741799167 340.3531480090417 787.6371741799167 337.6153260376016L787.6371741799167 337.6153260376016Q787.6371741799167 333.1731645607618 789.8673205540035 327.5706017185433L789.8673205540035 327.5706017185433Q792.2062545560948 320.51753716960167 795.8687713655709 320.51753716960167L795.8687713655709 320.51753716960167Q797.1742229016218 320.51753716960167 797.3011418009601 322.2218766750015L797.3011418009601 322.2218766750015Q792.2062545560948 330.4353425893217 792.2062545560948 337.3614882389251L792.2062545560948 337.3614882389251Q792.2062545560948 341.2778428470778 795.3429644968837 341.2778428470778L795.3429644968837 341.2778428470778Q800.9636586104361 341.2778428470778 807.2189472206801 330.56226148866L807.2189472206801 330.56226148866Q812.9665602335708 321.0433440382888 812.9665602335708 314.51608635803433L812.9665602335708 314.51608635803433Q812.9665602335708 312.557909053958 816.1032701743597 312.557909053958L816.1032701743597 312.557909053958Q818.5872543471233 312.557909053958 818.5872543471233 315.0418932267216L818.5872543471233 315.0418932267216Q818.5872543471233 319.7378925022379 818.1339725637723 327.11731993519237Q817.6625595090873 334.4786160968127 816.7559959423852 344.54147168720505L816.7559959423852 344.54147168720505Q818.1883663777744 344.1425837178561 820.7448756358741 343.7618270198413Q823.2832536226397 343.36293905049234 825.1145120273778 343.36293905049234L825.1145120273778 343.36293905049234Q830.0643491015708 343.36293905049234 830.0643491015708 344.79530948588155L830.0643491015708 344.79530948588155Q830.0643491015708 345.448035253907 829.1577855348687 345.448035253907L829.1577855348687 345.448035253907Q828.7588975655199 345.448035253907 827.453446029469 345.3936414399049Q826.1479944934181 345.3211163545687 824.7156240580289 345.3211163545687L824.7156240580289 345.3211163545687Q823.410172521978 345.3211163545687 820.7448756358741 345.84692322325594Q818.0614474784361 346.3727300919431 816.230189073698 346.8804056892962L816.230189073698 346.8804056892962Q811.2803519995051 384.4846624360957 783.4669817730874 399.62427400001917L783.4669817730874 399.62427400001917Q777.5924498608583 402.7609839408082 771.7904430339654 404.39279836087184Q765.9703049357386 406.02461278093546 759.9688541241712 406.02461278093546ZM764.0121276316622 402.23517707212096L764.0121276316622 402.23517707212096Q775.634272556782 402.23517707212096 782.8142560050619 398.0649846652918L782.8142560050619 398.0649846652918Q806.5662214526546 384.61158133543387 810.8814640301562 347.8051005273323L810.8814640301562 347.8051005273323Q745.0830803589242 365.15672719400874 745.0830803589242 387.8752101755611L745.0830803589242 387.8752101755611Q745.0830803589242 402.23517707212096 764.0121276316622 402.23517707212096ZM844.4243159981306 348.1858572253471L844.4243159981306 348.1858572253471Q836.8635758518358 348.1858572253471 832.6208583596704 343.7618270198413Q828.3781408675051 339.31966554300146 828.3781408675051 331.3600374273578L828.3781408675051 331.3600374273578Q828.3781408675051 324.8327797471033 830.7170748695962 318.5593598655253L830.7170748695962 318.5593598655253Q826.8007202614435 318.5593598655253 824.5887051586906 317.7797151981617L824.5887051586906 317.7797151981617Q820.9261883492145 317.0000705307979 820.9261883492145 315.0418932267216L820.9261883492145 315.0418932267216Q820.9261883492145 314.2441172880238 822.1047209859271 314.2441172880238L822.1047209859271 314.2441172880238Q823.0294158239631 314.2441172880238 824.2623422746778 314.3166423733599Q825.4952687253926 314.38916745869614 827.1996082307924 314.51608635803433L827.1996082307924 314.51608635803433Q829.0308666355304 314.64300525737264 830.3363181715813 314.71553034270886Q831.6417697076322 314.76992415671094 832.421414374996 314.76992415671094L832.421414374996 314.76992415671094L836.9904947511742 304.0724740696272Q838.5497840859016 300.28303836081284 839.8552356219525 297.92597308738755Q841.1606871580034 295.5870390852964 841.9584630967012 294.6623442472603L841.9584630967012 294.6623442472603Q843.9166404007775 292.57724804384566 847.1802692409046 292.57724804384566L847.1802692409046 292.57724804384566Q850.2988479103597 292.57724804384566 850.2988479103597 293.88269957989655L850.2988479103597 293.88269957989655L845.7297675341815 301.0626830281765Q843.2639146327521 304.97903763632917 841.3601311426778 308.51463554646705Q839.4744789239376 312.03210218527084 838.0421084885485 315.1688121260598L838.0421084885485 315.1688121260598Q846.1286555035304 315.1688121260598 850.9515736783851 315.09628704072367Q855.7926231245739 315.0418932267216 857.4788313586396 315.0418932267216L857.4788313586396 315.0418932267216L858.5304450960139 315.0418932267216Q860.0897344307414 315.0418932267216 860.0897344307414 315.4226499247364L860.0897344307414 315.4226499247364Q860.0897344307414 316.20229459210015 856.9711557612864 316.8550203601256L856.9711557612864 316.8550203601256Q851.350461647734 317.50774612815104 846.382493302207 317.9066340974999Q841.432656228014 318.3055220668488 836.9904947511742 318.3055220668488L836.9904947511742 318.3055220668488Q835.6850432151233 321.69606980631426 834.8328734624233 325.4129804297925Q833.9807037097235 329.1298910532708 833.9807037097235 332.52043879273634L833.9807037097235 332.52043879273634Q833.9807037097235 337.6153260376016 836.3377689831486 341.404761746416Q838.6948342565739 345.1941974552305 844.6962850681413 345.1941974552305L844.6962850681413 345.1941974552305Q851.8762685164212 345.1941974552305 856.1189860085866 341.7311246304287Q860.361703500752 338.26805180562707 864.8038649775918 332.792407862747L864.8038649775918 332.792407862747Q865.4565907456174 332.01276319538323 865.9642663429704 332.01276319538323L865.9642663429704 332.01276319538323Q866.3631543123194 332.01276319538323 866.3631543123194 332.6654889634087L866.3631543123194 332.6654889634087Q866.3631543123194 333.5720525301106 865.311540574945 335.0044229654998L865.311540574945 335.0044229654998Q859.7089777327266 342.18440641377975 854.8135344725357 345.1941974552305Q849.9180912123448 348.1858572253471 844.4243159981306 348.1858572253471ZM866.2362354129812 347.40621255798334L866.2362354129812 347.40621255798334Q860.8875103694392 347.40621255798334 860.8875103694392 342.18440641377975L860.8875103694392 342.18440641377975Q860.8875103694392 337.2345693395868 868.0674938177192 328.35024638590704L868.0674938177192 328.35024638590704Q874.5947514979736 320.11864920025283 879.4176696728283 317.0000705307979Q884.240587847683 313.8633605900089 888.4289115258463 313.8633605900089L888.4289115258463 313.8633605900089Q893.3787486000392 313.8633605900089 893.3787486000392 316.7281014607873L893.3787486000392 316.7281014607873Q893.3787486000392 317.38082722881273 892.0732970639883 318.63188495086155Q890.7678455279374 319.8648114015762 890.6409266285991 320.11864920025283L890.6409266285991 320.11864920025283Q888.1569424558357 324.18005397907785 888.1569424558357 336.58184357156136L888.1569424558357 336.58184357156136Q888.1569424558357 343.7618270198413 891.2936523966247 343.7618270198413L891.2936523966247 343.7618270198413Q894.1765245387371 343.7618270198413 897.9478289762174 340.3531480090417Q901.7372646850317 336.96260026957617 905.000893525159 332.792407862747L905.000893525159 332.792407862747Q905.399781494508 332.39351989339804 905.6536192931845 332.39351989339804L905.6536192931845 332.39351989339804Q906.1794261618717 332.39351989339804 906.1794261618717 333.0462456614235L906.1794261618717 333.0462456614235Q906.1794261618717 333.3182147314341 905.9799821771971 333.9709404994596Q905.7805381925227 334.623666267485 905.5267003938462 335.0044229654998L905.5267003938462 335.0044229654998Q900.1779753503043 342.18440641377975 896.3160145561538 344.66839058654324Q892.4721850333373 347.15237475930684 888.8096682238611 347.15237475930684L888.8096682238611 347.15237475930684Q882.935136311632 347.15237475930684 883.0801864823044 334.623666267485L883.0801864823044 334.623666267485Q880.5962023095409 339.0476964729908 875.9002030340245 342.9640510811435L875.9002030340245 342.9640510811435Q870.4064278198102 347.40621255798334 866.2362354129812 347.40621255798334ZM869.7537020517848 343.8887459191796L869.7537020517848 343.8887459191796Q871.9838484258718 343.8887459191796 874.4497013273012 342.05748751444145L874.4497013273012 342.05748751444145Q882.1554916442683 335.9291178035359 884.5125569176936 319.08516673421246L884.5125569176936 319.08516673421246Q884.1136689483446 319.08516673421246 883.9867500490063 318.95824783487427L883.9867500490063 318.95824783487427Q881.3758469769045 318.95824783487427 877.060604399403 322.0768265043292L877.060604399403 322.0768265043292Q873.4162188612609 324.56081067709266 871.186072487174 327.4436828192051L871.186072487174 327.4436828192051Q865.9642663429704 334.2247782981361 865.9642663429704 339.19274664366316L865.9642663429704 339.19274664366316Q865.9642663429704 343.8887459191796 869.7537020517848 343.8887459191796ZM918.1823277850062 348.1858572253471L918.1823277850062 348.1858572253471Q905.000893525159 348.1858572253471 905.000893525159 328.749134355256L905.000893525159 328.749134355256Q905.000893525159 309.6750369118456 917.5296020169808 287.3554418996421L917.5296020169808 287.3554418996421Q929.8044727101262 265.16276578677684 940.7738918672204 265.16276578677684L940.7738918672204 265.16276578677684Q944.6902464753732 265.16276578677684 945.995698011424 270.51149083031873L945.995698011424 270.51149083031873L945.995698011424 272.2158303357185Q945.995698011424 281.60782888675135 931.508812215526 303.9455551702889L931.508812215526 303.9455551702889Q925.3623112332862 313.59139151999835 919.9591923757423 320.7713749682783Q914.5379422468642 327.9513584165582 909.8419429713477 332.9193267620852L909.8419429713477 332.9193267620852Q911.4012323060753 344.66839058654324 920.6663119577697 344.66839058654324L920.6663119577697 344.66839058654324Q926.2870060713224 344.66839058654324 930.203360679475 341.4772868317522Q934.1197152876276 338.26805180562707 938.5618767644676 332.792407862747L938.5618767644676 332.792407862747Q939.3415214318313 332.01276319538323 939.5953592305078 332.01276319538323L939.5953592305078 332.01276319538323Q939.9942471998568 332.01276319538323 939.9942471998568 332.6654889634087L939.9942471998568 332.6654889634087Q939.9942471998568 333.5720525301106 939.0695523618206 335.0044229654998L939.0695523618206 335.0044229654998Q933.4669895196023 342.18440641377975 928.4990211740753 345.1941974552305Q923.5491840998822 348.1858572253471 918.1823277850062 348.1858572253471ZM909.9688618706862 329.65569792195794L909.9688618706862 329.65569792195794Q917.0219264196278 322.7295522723546 928.3721022747369 302.2412156648892L928.3721022747369 302.2412156648892Q940.3750038978716 280.4474275213728 940.3750038978716 272.2158303357185L940.3750038978716 272.2158303357185Q940.3750038978716 268.5533135262424 938.2899076944569 268.5533135262424L938.2899076944569 268.5533135262424Q930.203360679475 268.5533135262424 919.8866672904061 291.797603376482L919.8866672904061 291.797603376482Q915.0637491155514 303.29282940226346 912.5072398574516 312.6848279532963Q909.9688618706862 322.0768265043292 909.9688618706862 329.65569792195794ZM968.9680187916531 349.2374709627214L968.9680187916531 349.2374709627214Q964.01818171746 349.2374709627214 959.8298580392967 346.3727300919431Q955.6596656324675 343.48985794983065 953.8284072277295 336.70876247089967L953.8284072277295 336.70876247089967Q953.7014883283912 335.7840676328636 953.3751254443785 333.77149651478504Q953.0487625603657 331.7407941253726 952.6498745910168 328.35024638590704L952.6498745910168 328.35024638590704Q948.7335199828641 331.8677130247109 943.1309571406457 340.62511707905236L943.1309571406457 340.62511707905236Q942.4782313726203 341.6585995450926 941.4991427205821 343.1634950658179Q940.5200540685439 344.66839058654324 939.0695523618206 346.6265678906196L939.0695523618206 346.6265678906196Q938.5618767644676 347.15237475930684 937.6371819264315 347.15237475930684L937.6371819264315 347.15237475930684Q935.2982479243403 347.15237475930684 935.2982479243403 344.54147168720505L935.2982479243403 344.54147168720505Q935.2982479243403 344.0156648185178 938.6887956638058 333.44513363077243L938.6887956638058 333.44513363077243Q961.4072786453582 263.60347645204945 964.01818171746 260.99257337994766L964.01818171746 260.99257337994766Q964.525857314813 260.4667665112604 965.7043899515257 260.4667665112604L965.7043899515257 260.4667665112604Q969.8927136296891 260.4667665112604 969.8927136296891 263.47655755271114L969.8927136296891 263.47655755271114Q969.8927136296891 265.28968468611515 966.3571157195513 274.3009265391331L966.3571157195513 274.3009265391331Q963.3654559494346 281.879797956762 960.2287460086457 289.3136192037184Q957.0920360678567 296.765571722009 953.9553261270677 304.1993929689655L953.9553261270677 304.1993929689655Q944.0375207073478 328.47716528524535 944.164439606686 332.01276319538323L944.164439606686 332.01276319538323L958.143649805231 320.39061827026336Q962.7127301814091 316.601182561449 966.7560036889001 314.84244924204705Q970.7992771963911 313.08371592264524 973.8090682378418 313.08371592264524L973.8090682378418 313.08371592264524Q979.8105190494091 313.08371592264524 979.8105190494091 319.08516673421246L979.8105190494091 319.08516673421246Q979.8105190494091 322.2218766750015 977.0001719926329 324.8871735611054Q974.1898249358566 327.5706017185433 970.2734703277039 329.2024161386069Q966.3571157195513 330.8342305586705 962.8396490807474 330.8342305586705L962.8396490807474 330.8342305586705Q961.0083906760093 330.8342305586705 959.3040511706095 330.1815047906451L959.3040511706095 330.1815047906451Q959.3040511706095 336.70876247089967 962.3138422120602 341.2778428470778L962.3138422120602 341.2778428470778Q964.01818171746 343.8887459191796 966.4296408048874 344.99475347055596Q968.8410998923148 346.10076102193244 971.4520029644166 346.10076102193244L971.4520029644166 346.10076102193244Q974.0629060365184 346.10076102193244 976.8007280079584 345.1941974552305Q979.5385499793985 344.2695026171944 981.7686963534854 342.9640510811435L981.7686963534854 342.9640510811435Q985.6850509616381 340.49819817971405 988.2234289484038 338.14113290628876Q990.7799382065034 335.7840676328636 993.3908412786052 332.792407862747L993.3908412786052 332.792407862747Q994.0435670466306 332.13968209472154 994.4243237446456 332.13968209472154L994.4243237446456 332.13968209472154Q994.9501306133327 332.13968209472154 994.9501306133327 332.792407862747L994.9501306133327 332.792407862747Q994.9501306133327 333.1731645607618 994.5512426439838 333.89841541412335Q994.170485945969 334.623666267485 993.8985168759584 335.0044229654998L993.8985168759584 335.0044229654998Q992.0853897425543 337.3614882389251 989.7283244691291 339.57350334167796Q987.3712591957038 341.80364971576495 984.1076303555766 344.0156648185178L984.1076303555766 344.0156648185178Q980.7170826161112 346.4996489912814 976.7463341939563 347.85949434133437Q972.7574545004675 349.2374709627214 968.9680187916531 349.2374709627214ZM961.2622284746859 327.8244395172199L961.2622284746859 327.8244395172199Q965.0516641835004 327.8244395172199 968.5872620936382 325.73934331380525Q972.1047287324419 323.6542471103906 972.1047287324419 320.7713749682783L972.1047287324419 320.7713749682783Q972.1047287324419 317.7797151981617 968.5872620936382 317.7797151981617L968.5872620936382 317.7797151981617Q966.3571157195513 317.7797151981617 964.01818171746 319.21208563355077Q961.6611164440349 320.64445606894 959.5760202406201 322.54823955901423Q957.4909240372056 324.43389177775435 955.7865845318058 326.1382312831542L955.7865845318058 326.1382312831542Q957.8716807352204 327.8244395172199 961.2622284746859 327.8244395172199Z " fill=" #FFA500" transform="matrix(0.8794410682517981,0,0,0.8794410682517981,0,8.883350066432328)"/></g></svg>